<svg id="Layer_1" data-name="Layer 1" xmlns="http://www.w3.org/2000/svg" viewBox="0 0 32 32"><defs><style>.cls-1{fill:none;stroke:#403e56;stroke-linecap:round;stroke-linejoin:round;stroke-width:0.5px;}</style></defs><title>ERP</title><rect class="cls-1" x="20.55" y="12.96" width="9.46" height="3.17"/><rect class="cls-1" x="20.55" y="16.13" width="9.46" height="3.17"/><polyline class="cls-1" points="17.04 19.31 20.55 19.31 20.55 22.48 11.09 22.48 11.09 19.31 14.65 19.31"/><rect class="cls-1" x="20.55" y="19.31" width="9.46" height="3.17"/><rect class="cls-1" x="11.08" y="22.48" width="9.46" height="3.17"/><rect class="cls-1" x="20.55" y="22.48" width="9.46" height="3.17"/><rect class="cls-1" x="1.62" y="25.65" width="9.46" height="3.17"/><rect class="cls-1" x="11.08" y="25.65" width="9.46" height="3.17"/><rect class="cls-1" x="20.55" y="25.65" width="9.46" height="3.17"/><rect class="cls-1" x="1.62" y="28.83" width="9.46" height="3.17"/><rect class="cls-1" x="11.08" y="28.83" width="9.46" height="3.17"/><rect class="cls-1" x="20.55" y="28.83" width="9.46" height="3.17"/><line class="cls-1" x1="17.95" y1="7.88" x2="16.27" y2="7.88"/><line class="cls-1" x1="17.95" y1="7.88" x2="17.95" y2="9.57"/><path class="cls-1" d="M28.66,1.34A5.2,5.2,0,1,1,26.86.28"/><circle class="cls-1" cx="25.16" cy="5.23" r="3.18"/><path class="cls-1" d="M24.15,4.3c0-.43.27-.85,1.05-.85h0a1,1,0,0,1,1,1"/><path class="cls-1" d="M26.24,6.06a1,1,0,0,1-1,1.05h0a1,1,0,0,1-1-.89"/><path class="cls-1" d="M24.15,4.35c0,1,2.09.6,2.09,1.77"/><line class="cls-1" x1="25.2" y1="3.1" x2="25.2" y2="7.49"/><polyline class="cls-1" points="17.73 8.1 15.81 9.77 11.09 9.77 11.09 15.1 1.62 15.1 1.62 23.39"/></svg>