<svg id="Layer_1" data-name="Layer 1" xmlns="http://www.w3.org/2000/svg" viewBox="0 0 32 32"><defs><style>.cls-1{fill:none;stroke:#403e56;stroke-linecap:round;stroke-linejoin:round;stroke-width:0.5px;}</style></defs><title>ERP</title><path class="cls-1" d="M16,32V23c0-1.81-3.93-3-6.29-3.61L8,21.31l1.86,1.38,1.49-2.78"/><path class="cls-1" d="M0,32V23C0,21,4,19.84,6.33,19.32l1.66,2L6.21,22.67,4.63,19.75"/><line class="cls-1" x1="2.94" y1="24.15" x2="2.94" y2="32.02"/><line class="cls-1" x1="13.17" y1="24.15" x2="13.17" y2="32.02"/><polyline class="cls-1" points="6.8 22.22 7.33 23.16 8.73 23.16 9.21 22.22"/><polyline class="cls-1" points="7.33 23.16 6.14 29.84 8.03 31.64 9.88 29.77 8.58 23.16"/><line class="cls-1" x1="6.33" y1="19.32" x2="6.33" y2="18.16"/><line class="cls-1" x1="9.73" y1="19.32" x2="9.73" y2="18.16"/><path class="cls-1" d="M11.12,12.93v2.74a2.71,2.71,0,0,1-2.7,2.7h-.8a2.7,2.7,0,0,1-2.69-2.7V13"/><path class="cls-1" d="M4.7,15.47a1.27,1.27,0,0,1,0-2.54"/><path class="cls-1" d="M8.58,7.66A4.16,4.16,0,0,1,12,11.74V13.2"/><path class="cls-1" d="M3.76,13.2V11.74A4.16,4.16,0,0,1,6.3,7.93"/><path class="cls-1" d="M32,32V23c0-1.81-3.93-3-6.29-3.61L24,21.31l1.86,1.38,1.49-2.78"/><path class="cls-1" d="M16,32V23c0-1.95,4-3.14,6.35-3.66l1.66,2-1.78,1.36-1.57-2.92"/><line class="cls-1" x1="18.95" y1="24.15" x2="18.95" y2="32.02"/><line class="cls-1" x1="29.17" y1="24.15" x2="29.17" y2="32.02"/><polyline class="cls-1" points="22.81 22.22 23.33 23.16 24.73 23.16 25.21 22.22"/><polyline class="cls-1" points="23.33 23.16 22.14 29.84 24.03 31.64 25.89 29.77 24.58 23.16"/><line class="cls-1" x1="22.33" y1="19.32" x2="22.33" y2="18.16"/><line class="cls-1" x1="25.73" y1="19.32" x2="25.73" y2="18.16"/><path class="cls-1" d="M27.12,12.51v3.16a2.71,2.71,0,0,1-2.7,2.7h-.79a2.7,2.7,0,0,1-2.7-2.7V12.74"/><path class="cls-1" d="M20.71,15.47a1.27,1.27,0,1,1,0-2.54"/><path class="cls-1" d="M27.15,15.47a1.27,1.27,0,1,0,0-2.54"/><path class="cls-1" d="M24.58,7.66A4.16,4.16,0,0,1,28,11.74V13.2"/><path class="cls-1" d="M19.77,13.37V11.74A4.15,4.15,0,0,1,22.3,7.93"/><path class="cls-1" d="M25.71,11.17c-1,2.06-5.31,1.34-5.31,1.34"/><path class="cls-1" d="M25.47,11.55s.72,1.15,1.65.89"/><path class="cls-1" d="M19.8,12.3a10.83,10.83,0,0,0-2.05-.58L16,13.66l1.86,1.39,1.49-2.78"/><path class="cls-1" d="M12,12.28c.71-.22,1.72-.47,2.31-.61l1.66,2L14.23,15l-1.58-2.92"/><polyline class="cls-1" points="14.82 14.57 15.34 15.52 16.75 15.52 17.23 14.57"/><line class="cls-1" x1="18" y1="20.75" x2="16.6" y2="15.52"/><line class="cls-1" x1="15.34" y1="15.52" x2="13.84" y2="20.75"/><line class="cls-1" x1="14.35" y1="11.67" x2="14.35" y2="10.52"/><line class="cls-1" x1="17.75" y1="11.67" x2="17.75" y2="10.52"/><path class="cls-1" d="M12.72,7.82a1.27,1.27,0,0,1,0-2.53"/><path class="cls-1" d="M19.17,7.82a1.27,1.27,0,1,0,0-2.53"/><path class="cls-1" d="M16.6,0A4.16,4.16,0,0,1,20.06,4.1V5.56"/><path class="cls-1" d="M11.78,5.6V4.1A4.15,4.15,0,0,1,14.31.29"/><path class="cls-1" d="M5.92,10.89a6.52,6.52,0,0,0,5.23,2,1.26,1.26,0,0,1,1.27,1.27,1.27,1.27,0,0,1-1.27,1.27"/><path class="cls-1" d="M6.56,11.65A2.12,2.12,0,0,1,4.7,12.93"/><path class="cls-1" d="M17.42,2.28s-1.5,3.1-4.61,3"/><path class="cls-1" d="M16.82,3.31a2.19,2.19,0,0,0,2.31,1.56V8a2.71,2.71,0,0,1-2.69,2.7h-.8A2.71,2.71,0,0,1,12.94,8V5.56"/></svg>