<svg id="Layer_1" data-name="Layer 1" xmlns="http://www.w3.org/2000/svg" viewBox="0 0 32 32"><defs><style>.cls-1{fill:none;stroke:#403e56;stroke-linecap:round;stroke-linejoin:round;stroke-width:0.5px;}</style></defs><title>ERP</title><path class="cls-1" d="M28.2,16a4.05,4.05,0,1,1-1.4-.82"/><circle class="cls-1" cx="25.48" cy="18.99" r="2.47"/><path class="cls-1" d="M24.7,18.27c0-.33.21-.66.81-.66h0a.81.81,0,0,1,.81.81"/><path class="cls-1" d="M26.32,19.64a.81.81,0,0,1-.81.81h0a.81.81,0,0,1-.8-.69"/><path class="cls-1" d="M24.7,18.31c0,.79,1.62.46,1.62,1.38"/><line class="cls-1" x1="25.51" y1="17.33" x2="25.51" y2="20.75"/><path class="cls-1" d="M25.49,24.11V30a2,2,0,0,1-2,2H4.42a2,2,0,0,1-1.95-2V2A2,2,0,0,1,4.42,0H23.53a2,2,0,0,1,2,2V14"/><line class="cls-1" x1="5.48" y1="15.83" x2="17.21" y2="15.83"/><line class="cls-1" x1="5.48" y1="18.22" x2="17.21" y2="18.22"/><line class="cls-1" x1="5.48" y1="23.01" x2="17.21" y2="23.01"/><line class="cls-1" x1="5.48" y1="25.41" x2="15.31" y2="25.41"/><line class="cls-1" x1="5.48" y1="27.8" x2="11.69" y2="27.8"/><line class="cls-1" x1="17.83" y1="2.34" x2="17.83" y2="4.39"/><line class="cls-1" x1="19.25" y1="2.34" x2="19.25" y2="4.39"/><line class="cls-1" x1="20.67" y1="2.34" x2="20.67" y2="4.39"/><line class="cls-1" x1="22.09" y1="2.34" x2="22.09" y2="4.39"/><line class="cls-1" x1="23.5" y1="2.34" x2="23.5" y2="4.39"/><line class="cls-1" x1="5.86" y1="7.43" x2="5.86" y2="12.61"/><polyline class="cls-1" points="10.73 7.43 10.73 12.61 7.73 7.43 7.73 12.61"/></svg>