<svg id="Layer_1" data-name="Layer 1" xmlns="http://www.w3.org/2000/svg" viewBox="0 0 32 32"><defs><style>.cls-1{fill:none;stroke:#403e56;stroke-linecap:round;stroke-linejoin:round;stroke-width:0.5px;}</style></defs><title>ERP</title><path class="cls-1" d="M28.66,6.22A16,16,0,1,1,0,16"/><path class="cls-1" d="M1.9,8.42A16,16,0,0,1,27,4.36"/><circle class="cls-1" cx="16" cy="16" r="12.93"/><circle class="cls-1" cx="16" cy="16" r="1.31"/><line class="cls-1" x1="16" y1="3.07" x2="16" y2="4.86"/><line class="cls-1" x1="16" y1="27.14" x2="16" y2="28.93"/><line class="cls-1" x1="28.93" y1="16" x2="27.14" y2="16"/><line class="cls-1" x1="4.86" y1="16" x2="3.07" y2="16"/><line class="cls-1" x1="9.65" y1="4.74" x2="10.53" y2="6.3"/><line class="cls-1" x1="21.47" y1="25.7" x2="22.35" y2="27.26"/><line class="cls-1" x1="27.26" y1="9.65" x2="25.7" y2="10.53"/><line class="cls-1" x1="6.3" y1="21.47" x2="4.74" y2="22.35"/><line class="cls-1" x1="4.72" y1="9.67" x2="6.28" y2="10.55"/><line class="cls-1" x1="25.72" y1="21.45" x2="27.28" y2="22.33"/><line class="cls-1" x1="22.33" y1="4.72" x2="21.45" y2="6.28"/><line class="cls-1" x1="10.55" y1="25.72" x2="9.67" y2="27.28"/><line class="cls-1" x1="16" y1="7.93" x2="16" y2="14.69"/><polyline class="cls-1" points="15 8.92 16 7.93 17 8.92"/><line class="cls-1" x1="21.56" y1="16.07" x2="17.31" y2="16.07"/><polyline class="cls-1" points="20.56 15.07 21.56 16.07 20.56 17.07"/></svg>