<svg id="Layer_1" data-name="Layer 1" xmlns="http://www.w3.org/2000/svg" viewBox="0 0 32 32"><defs><style>.cls-1{fill:none;stroke:#403e56;stroke-linecap:round;stroke-linejoin:round;stroke-width:0.45px;}</style></defs><title>ERP</title><line class="cls-1" x1="17.25" y1="5.39" x2="24.74" y2="5.39"/><line class="cls-1" x1="17.25" y1="12.41" x2="24.74" y2="12.41"/><line class="cls-1" x1="17.25" y1="7.66" x2="23.52" y2="7.66"/><line class="cls-1" x1="17.25" y1="9.94" x2="21.21" y2="9.94"/><line class="cls-1" x1="17.25" y1="14.4" x2="21.21" y2="14.4"/><path class="cls-1" d="M5.28,0H1.86A1.86,1.86,0,0,0,0,1.86V19a1.85,1.85,0,0,0,1.86,1.85H4.78v5.94l5.94-5.94H26.38A1.86,1.86,0,0,0,28.24,19V1.86A1.86,1.86,0,0,0,26.38,0H8.9"/><path class="cls-1" d="M29.08,10.72h1.45A1.47,1.47,0,0,1,32,12.19V25.81a1.47,1.47,0,0,1-1.47,1.47H28.2V32l-4.72-4.72H11a1.47,1.47,0,0,1-1.47-1.47v-3"/><path class="cls-1" d="M14.82,10.83V9H12.38A3.23,3.23,0,0,0,12,8.1l1.72-1.72L12.45,5.12,10.73,6.84a3.52,3.52,0,0,0-.94-.39V4H8V6.45a3.52,3.52,0,0,0-.94.39L5.34,5.12,4.08,6.38,5.8,8.1A3.52,3.52,0,0,0,5.41,9H3v1.79H5.41a3.52,3.52,0,0,0,.39.94L4.08,13.49l1.26,1.26L7.06,13a3.23,3.23,0,0,0,.94.39v2.44H9.79V13.42a3.23,3.23,0,0,0,.94-.39l1.72,1.72,1.26-1.26L12,11.77a3.23,3.23,0,0,0,.39-.94Z"/><circle class="cls-1" cx="8.9" cy="9.94" r="1.37"/></svg>