<svg id="Layer_1" data-name="Layer 1" xmlns="http://www.w3.org/2000/svg" viewBox="0 0 32 32"><defs><style>.cls-1{fill:none;stroke:#403e56;stroke-linecap:round;stroke-linejoin:round;stroke-width:0.5px;}</style></defs><title>ERP</title><path class="cls-1" d="M18.15,26.89l-3.83,1.26,1.25-3.83,13-13a1.16,1.16,0,0,1,1.62,0l.95,1a1.14,1.14,0,0,1,0,1.62Z"/><line class="cls-1" x1="27.71" y1="12.18" x2="30.28" y2="14.76"/><line class="cls-1" x1="26.38" y1="13.51" x2="28.96" y2="16.08"/><path class="cls-1" d="M18.15,26.89c.41-.41.17-1.33-.54-2s-1.62-1-2-.53"/><path class="cls-1" d="M23.5,24.11V30a2,2,0,0,1-1.95,2H2.44a2,2,0,0,1-2-2V2a2,2,0,0,1,2-2H21.55A2,2,0,0,1,23.5,2V14"/><line class="cls-1" x1="3.5" y1="8.64" x2="15.23" y2="8.64"/><line class="cls-1" x1="3.5" y1="11.04" x2="15.23" y2="11.04"/><line class="cls-1" x1="3.5" y1="13.43" x2="15.23" y2="13.43"/><line class="cls-1" x1="3.5" y1="18.22" x2="15.23" y2="18.22"/><line class="cls-1" x1="3.5" y1="20.62" x2="13.32" y2="20.62"/><line class="cls-1" x1="3.5" y1="23.01" x2="9.71" y2="23.01"/><line class="cls-1" x1="15.23" y1="2.34" x2="15.23" y2="4.39"/><line class="cls-1" x1="16.65" y1="2.34" x2="16.65" y2="4.39"/><line class="cls-1" x1="18.06" y1="2.34" x2="18.06" y2="4.39"/><line class="cls-1" x1="19.48" y1="2.34" x2="19.48" y2="4.39"/><line class="cls-1" x1="20.9" y1="2.34" x2="20.9" y2="4.39"/><line class="cls-1" x1="17.61" y1="24.85" x2="27.67" y2="14.79"/></svg>