<svg id="Layer_1" data-name="Layer 1" xmlns="http://www.w3.org/2000/svg" viewBox="0 0 32 32"><defs><style>.cls-1{fill:none;stroke:#403e56;stroke-linecap:round;stroke-linejoin:round;stroke-width:0.5px;}</style></defs><title>ERP</title><path class="cls-1" d="M13.45,0H23.66V12.94a7.66,7.66,0,0,1-15.32,0V0h1.88"/><path class="cls-1" d="M10.22,18.15a5.83,5.83,0,0,1-.84.06,5.48,5.48,0,0,1-5.47-5.47V3.49H8.34"/><path class="cls-1" d="M9.05,16.41A3.69,3.69,0,0,1,5.7,12.74V5.28H8.34"/><path class="cls-1" d="M28.09,9.36V3.49H23.66"/><path class="cls-1" d="M21.78,18.15a5.83,5.83,0,0,0,.84.06,5.48,5.48,0,0,0,5.47-5.47"/><path class="cls-1" d="M23,16.41a3.69,3.69,0,0,0,3.35-3.67V5.28H23.66"/><path class="cls-1" d="M13.45,20.23C13.36,22.3,12.89,26,10.63,26"/><path class="cls-1" d="M18.55,20.23c.09,2.07.56,5.76,2.82,5.76"/><path class="cls-1" d="M10.22,26h14a.44.44,0,0,1,.43.44v2.13a.44.44,0,0,1-.43.44H7.8a.44.44,0,0,1-.43-.44V26.43A.44.44,0,0,1,7.8,26H9.05"/><path class="cls-1" d="M23,32H4.52a.44.44,0,0,1-.44-.43V29.43A.44.44,0,0,1,4.52,29h23a.43.43,0,0,1,.43.43v2.14a.43.43,0,0,1-.43.43h-1.6"/><polygon class="cls-1" points="16 5.41 17.2 7.85 19.9 8.24 17.95 10.14 18.41 12.83 16 11.56 13.59 12.83 14.05 10.14 12.1 8.24 14.79 7.85 16 5.41"/></svg>